<?xml version="1.0" standalone="no"?>
<!DOCTYPE svg PUBLIC "-//W3C//DTD SVG 1.1//EN" "http://www.w3.org/Graphics/SVG/1.1/DTD/svg11.dtd">
<svg xmlns="http://www.w3.org/2000/svg" xmlns:xlink="http://www.w3.org/1999/xlink" xmlns:xodm="http://www.corel.com/coreldraw/odm/2003" xml:space="preserve" width="9143.98046875" height="7196.66015625" version="1.1" style="shape-rendering:geometricPrecision; text-rendering:geometricPrecision; image-rendering:optimizeQuality; fill-rule:evenodd; clip-rule:evenodd" viewBox="0 0 9143.98 7196.66">
 <defs>
  <style type="text/css">
   <![CDATA[
    .str0 {stroke:#0F7949;stroke-width:7.62;stroke-miterlimit:22.9256}
    .fil3 {fill:none;fill-rule:nonzero}
    .fil4 {fill:#EE3537}
    .fil0 {fill:#FAED23}
    .fil2 {fill:#14A958}
    .fil1 {fill:#0F7949}
    .fil5 {fill:#0F7949;fill-rule:nonzero}
   ]]>
  </style>
 </defs>
 <g id="Camada_x0020_1">
  <metadata id="CorelCorpID_0Corel-Layer"/>
  <g id="_2107787913520">
   <path class="fil0" d="M5378.08 444.83c1650.92,0 2989.24,1318.27 2989.24,2944.46 0,1626.18 -1338.32,2944.45 -2989.24,2944.45 -1650.93,0 -2989.25,-1318.27 -2989.25,-2944.45 0,-1626.19 1338.32,-2944.46 2989.25,-2944.46z"/>
   <path class="fil1" d="M4936.52 910.37c-157.69,-132.76 -268.36,294.94 33.08,902.96 91.39,206.65 434.96,566.69 81.61,1113.82l292.79 0c0,0 289.39,-434.03 -95.78,-1109.67 0,0 -266.06,-304.18 -176.23,-721.33 4.38,-20.38 18.09,-56.52 15.18,-59l-150.65 -126.78z"/>
   <path class="fil2" d="M3564.84 318.46c0,0 65.56,1.02 153.59,-51.2 88.03,-52.22 185.29,-44.02 185.29,-44.02 0,0 8.19,-30.74 55.28,-31.76 0,0 324.52,-85.99 416.66,-7.15 0,0 25.62,-2.07 33.8,-33.8 0,0 621.38,1.05 606.04,264.15 0,0 162.78,-111.12 361.37,-11.3 0,0 32.78,26.63 118.77,26.63l219.58 138.26c0,0 59.92,35.32 49.69,91.63 0,0 105.45,-16.41 241.62,160.71 0,0 132.63,118.72 117.27,189.89 0,0 119.33,11.76 159.26,195 0,0 40.43,16.4 55.28,78.84 0,0 -120.25,-33.27 -181.7,-25.6 -61.43,7.68 -138.19,-148.94 -138.19,-148.94 0,0 -12.83,32.78 19.43,121.82 0,0 -87.51,-10.18 -173,-119.19 0,0 -37.39,-54.79 -77.32,-67.57 -39.93,-12.78 -54.26,-91.62 -54.26,-91.62 0,0 -18.35,-84.47 -43.96,-100.36 -25.59,-15.87 -18.93,116.2 -18.93,116.2 0,0 44.57,84.48 29.21,124.4 0,0 -53.24,-9.22 -28.65,44.02 0,0 87,30.7 101.33,98.28 14.33,67.57 19.44,55.28 25.6,208.84 0,0 15.36,94.16 25.6,124.89 0,0 -56.28,4.09 -59.37,29.69 0,0 2.04,34.82 30.71,64.5 28.66,29.69 3.06,88.06 3.06,88.06 0,0 -32.75,104.44 -83.94,208.84 0,0 -17.4,2.04 -30.71,-39.93 0,0 -22.5,-86.01 -183.24,-129 0,0 -68.62,-2.08 -20.5,-220.12 0,0 -44.01,-8.13 -56.3,57.36 0,0 -6.13,37.85 -33.77,48.1 0,0 -64.6,-244.68 -207.91,-414.61 0,0 97.29,-141.24 75.77,-216 0,0 -44.04,2.04 -62.46,60.4 -18.42,58.34 -57.32,56.3 -57.32,56.3l-57.27 -96.42c0,0 -35.63,84.75 -26.78,203.89 0,0 -106.38,44.05 -100.22,231.37 0,0 7.86,85.68 -98.96,32.59l-38.23 -38.74c0,0 -22.5,14.36 21.51,133.09 0,0 17.4,52.19 -53.24,62.43 -70.63,10.24 -142.29,120.82 -151.51,144.37 0,0 -35.85,-72.68 -73.73,-95.21 -37.89,-22.54 -77.82,-111.59 -77.82,-111.59 0,0 -15.35,-70.64 42.99,-105.46 0,0 -17.42,-24.57 -62.45,2.04 0,0 -87.01,-353.17 88.06,-434.05 0,0 -54.3,5.14 -60.43,-40.91l-231.37 97.25c0,0 3.09,-76.77 -35.81,-61.41 -38.91,15.34 -75.78,127.96 -75.78,127.96 0,0 -64.47,-0.03 -143.31,56.27l-0.09 -388.99c0,0 60.41,-45.04 133.09,-167.89 0,0 11.77,-16.9 37.09,-27.39 0,0 25.25,-68.35 114.86,-79.09 0,0 45.07,5.11 39.44,-62.96 0,0 -33.77,-18.91 -81.91,-5.59 0,0 18.95,-64.51 11.77,-83.46 -7.18,-18.94 -78.81,12.26 -66.03,53.74 0,0 -56.79,34.82 -87.53,-25.07 0,0 -54.2,-45.62 -306.03,-14.9 0,0 36.83,-51.15 21.48,-106.45 0,0 -26.63,-19.49 -67.57,38.89 0,0 -37.86,37.86 -63.46,40.95 0,0 -36.86,5.1 -63.49,-69.62 0,0 -6.13,-35.81 -59.95,-54.28z"/>
   <path class="fil1" d="M5203.4 361.8c165.37,65.49 505.22,260.87 1079.43,842.68 0.07,0.34 0.16,0.68 0.23,1.02 0,0 0.52,0.21 1.43,0.67 12.94,13.12 26.03,26.48 39.2,39.97 5.77,10.24 10.99,22.82 14.65,38.2 0,0 -120.25,-33.27 -181.7,-25.6 -61.43,7.68 -138.19,-148.94 -138.19,-148.94 0,0 -12.83,32.78 19.43,121.82 0,0 -87.51,-10.18 -173,-119.19 0,0 -37.39,-54.79 -77.32,-67.57 -39.93,-12.78 -54.26,-91.62 -54.26,-91.62 0,0 -18.35,-84.47 -43.96,-100.36 -21.38,-13.26 -20.26,76.72 -19.3,106.7 -86.14,-147.88 -272.24,-428.16 -526.7,-592.35 18.53,-3.21 38.64,-5.26 60.06,-5.43z"/>
   <g>
    <path class="fil3 str0" d="M5203.59 361.52c165.37,65.5 505.23,260.88 1079.46,842.72m1.66 1.67c12.94,13.13 26.03,26.49 39.21,39.99m-653.68 -286.57c-86.14,-147.9 -272.25,-428.18 -526.71,-592.38"/>
   </g>
   <path class="fil1" d="M5154.2 417.78c0,0 -9.75,29.15 48.1,69.61 56.78,39.72 405.68,344.83 499.8,1467.73 -5.75,-5.16 -12.74,-15.15 -18.85,-34.45 0,0 -22.5,-86.01 -183.24,-129 0,0 -68.62,-2.08 -20.5,-220.12 0,0 -44.01,-8.13 -56.3,57.36 0,0 -6.13,37.85 -33.77,48.1 0,0 -64.6,-244.68 -207.91,-414.61 0,0 97.29,-141.24 75.77,-216 0,0 -44.04,2.04 -62.46,60.4 -18.42,58.34 -57.32,56.3 -57.32,56.3l-56.42 -94.99c4.84,-10.16 13.54,-17.41 28.15,-18.7 0,0 62.43,72.67 73.7,16.37 0,0 90.13,-204.79 62.5,-280.53 0,0 -30.44,1.8 -40.68,-24.32 -10.24,-26.13 37.33,-53 37.33,-53 0,0 28.2,-54.72 -58.84,-145.85 -87.05,-91.13 -65.52,-142.32 -29.06,-144.3z"/>
   <g>
    <path class="fil3 str0" d="M5154.39 417.51c0,0 -9.75,29.15 48.1,69.61 56.78,39.71 405.69,344.84 499.81,1467.78m-621.02 -887.05c4.84,-10.15 13.54,-17.41 28.16,-18.69 0,0 62.43,72.67 73.7,16.37 0,0 90.13,-204.8 62.5,-280.54 0,0 -30.44,1.8 -40.68,-24.32 -10.24,-26.14 37.33,-53 37.33,-53 0,0 28.2,-54.73 -58.85,-145.86 -87.05,-91.13 -65.51,-142.32 -29.05,-144.3"/>
   </g>
   <path class="fil1" d="M4932.47 488.35c0,0 -438.74,528.52 -341.83,1281.3 -9.79,-11.94 -20.59,-22.66 -31.55,-29.18 -37.89,-22.54 -77.82,-111.59 -77.82,-111.59 0,0 -15.35,-70.64 42.99,-105.46 0,0 -17.42,-24.57 -62.45,2.04 0,0 -87.01,-353.17 88.06,-434.05 0,0 -49.84,4.71 -59.4,-35.4 33.79,-97.91 122.27,-326.14 223.91,-362.93 0,0 36.84,-16.91 18.42,-36.87 -18.42,-19.96 -18.42,-44.02 -18.42,-44.02l36.34 -1.55c0,0 120.81,-117.18 181.75,-122.29z"/>
   <g>
    <path class="fil3 str0" d="M4932.65 488.08c0,0 -438.76,528.54 -341.84,1281.34m-100.18 -713.66c33.8,-97.91 122.28,-326.15 223.91,-362.95 0,0 36.84,-16.9 18.42,-36.86 -18.42,-19.96 -18.42,-44.02 -18.42,-44.02l36.35 -1.55c0,0 120.82,-117.19 181.76,-122.3"/>
   </g>
   <path class="fil1" d="M4879.74 362.44c0,0 -275.33,13.92 -876.63,645.56l-0.03 -126.42c0,0 60.41,-45.04 133.09,-167.89 0,0 11.77,-16.9 37.09,-27.39 0,0 25.25,-68.35 114.86,-79.09 0,0 44.21,5 39.58,-61.03 68.83,-53.62 286.06,-212.8 365.72,-151.99 0,0 15.89,8.7 23.56,-19.46 0,0 11.27,-46.09 162.76,-12.29z"/>
   <g>
    <path class="fil3 str0" d="M4879.92 362.17c0,0 -275.34,13.91 -876.66,645.57m324.6 -461.84c68.83,-53.61 286.07,-212.79 365.73,-151.98 0,0 15.88,8.69 23.56,-19.47 0,0 11.27,-46.08 162.77,-12.28"/>
   </g>
   <path class="fil1" d="M3713.09 270.37c70.34,6.23 183.61,0.26 366.1,-35.86 0,0 226.8,-76.91 905.65,80.25 -123.49,-163.42 -575.38,-164.23 -575.38,-164.23 -8.18,31.73 -33.8,33.8 -33.8,33.8 -92.14,-78.84 -416.66,7.15 -416.66,7.15 -47.09,1.02 -55.28,31.76 -55.28,31.76 0,0 -97.26,-8.2 -185.29,44.02 -1.79,1.06 -3.56,2.09 -5.34,3.11z"/>
   <g>
    <path class="fil3 str0" d="M3713.22 270.09c70.35,6.22 183.62,0.26 366.12,-35.87 0,0 226.8,-76.91 905.68,80.27"/>
   </g>
   <path class="fil4" d="M5343.69 2927.15l-290.74 0c0,0 -350.11,391.08 -174.05,1050.35 0,0 12.25,65.53 110.53,251.84 98.27,186.3 167.93,511.87 -90.07,861.98l292.78 0c0,0 313.22,-434.03 -34.85,-1109.67 0,0 -290.74,-454.51 186.4,-1054.5z"/>
   <path class="fil4" d="M338.7 2253.55l335.69 0 0 -1640.02c0,0 1326.75,493.45 548.72,1627.73 0,0 245.67,49.12 245.67,346.02 0,296.91 -223.17,323.52 -223.17,323.52 0,0 -235.47,51.2 -556.92,18.42l0 -464.76 -229.33 0 -120.66 -210.91zm585.33 -1214.08l0 1187.51c0,0 690.02,-567.12 0,-1187.51zm-1.09 1661.53l0 -218.06 271.31 0c0,0 107.5,214.99 -81.9,214.99l-189.41 3.07z"/>
   <path class="fil4" d="M1708.08 1024.12c39.59,-195.41 131.86,-348.13 395.21,-362.37 258.34,13 372.77,147.59 392.21,362.37l0.86 0 0 10.28 0 1586.74 0 10.28 -0.86 0c-19.44,214.78 -133.87,349.37 -392.21,362.37 -263.35,-14.24 -355.62,-166.97 -395.21,-362.37l-2.02 0 0 -10.28 0 -1586.74 0 -10.28 2.02 0zm405.27 -120.1c80.57,0 145.88,71.29 145.88,159.19l0 1521.75c0,87.9 -65.31,159.19 -145.88,159.19 -80.57,0 -145.88,-71.29 -145.88,-159.19l0 -1521.75c0,-87.9 65.31,-159.19 145.88,-159.19z"/>
   <path class="fil4" d="M2822.21 1092.98c0,0 -21.55,-251.83 138.14,-372.64 159.69,-120.81 329.62,-34.82 329.62,-34.82 0,0 148.46,95.25 275.4,1.05 0,0 203.73,-100.31 383.91,66.55 0,0 102.39,67.54 102.39,339.86l0 1821.1 8.73 1857.53c0,87.9 77.6,159.18 158.18,159.18 80.57,0 145.87,-71.28 145.87,-159.18l0 -1857.53 236.27 0 0.87 296.69 0 10.27 0 1586.75 0 10.28 -0.87 0c-19.44,214.78 -133.88,349.37 -392.21,362.36 -263.34,-14.23 -355.62,-166.96 -395.21,-362.36l-2.01 0 0 -10.28 0 -1586.75 0 -10.27 1.85 -2117.79c0,0 10.22,-187.32 -125.94,-187.32 -136.17,0 -130.99,187.32 -130.99,187.32l0 1842.68 -238.53 0 0 -1842.68c0,0 11.2,-191.43 -127.01,-191.43 -138.2,0 -129.94,191.43 -129.94,191.43l0 1842.68 -238.52 0 0 -1842.68z"/>
   <polygon class="fil4" points="5626.79,2911.55 6396.65,2911.55 6396.65,3153.13 6132.53,3153.13 6132.53,5124.78 5890.95,5124.78 5890.95,3153.13 5626.79,3153.13 "/>
   <path class="fil4" d="M6613.73 3218.97c39.6,-195.41 131.87,-348.13 395.21,-362.37 258.34,13 372.77,147.58 392.21,362.37l0.87 0 0 10.27 0 1586.75 0 10.28 -0.87 0c-19.44,214.78 -133.87,349.36 -392.21,362.36 -263.34,-14.23 -355.61,-166.95 -395.21,-362.36l-2.01 0 0 -10.28 0 -1586.75 0 -10.27 2.01 0zm405.28 -120.1c80.57,0 145.88,71.28 145.88,159.2l0 1521.73c0,87.92 -65.31,159.2 -145.88,159.2 -80.57,0 -145.89,-71.28 -145.89,-159.2l0 -1521.73c0,-87.92 65.32,-159.2 145.89,-159.2z"/>
   <path class="fil4" d="M3811.56 2907.45l-480.48 0c0,0 -889.57,530.57 -634.66,1633.99 1.48,6.4 3.09,12.84 4.64,19.28 322.06,1320.11 2975.04,2789 4846.22,846.6 0,0 -1457.77,1474.17 -3464.25,384.93 -1964.66,-1194.32 -652.62,-2807.84 -271.47,-2884.8z"/>
   <path class="fil5" d="M2300.49 4526.32l91.15 198.58c19.85,43.27 24.46,80.36 13.77,111.41 -10.73,30.94 -35.1,55.19 -73.14,72.65 -39.04,17.91 -75.02,20.17 -107.75,6.76 -32.81,-13.35 -60.26,-44.21 -82.38,-92.42l-30.04 -65.47 -143.02 65.63 -54.99 -119.8 386.4 -177.34zm-110.15 195.59l13.5 29.42c10.65,23.2 22.16,37.63 34.47,43.3 12.29,5.68 24.69,5.65 37.19,-0.09 12.15,-5.57 20.54,-14.32 25.25,-26.39 4.73,-11.97 1.93,-29.2 -8.39,-51.7l-15.67 -34.16 -86.35 39.62zm73.99 517.04l-75.04 -128.54 -71.28 16.86 -67.61 -115.81 447.84 -76.14 72.5 124.18 -286.83 351.94 -69.35 -118.79 49.77 -53.7zm65.47 -70.41l108.56 -117.14 -155.46 36.8 46.9 80.34zm309.37 12.46l136.27 170.81c29.69,37.2 43.09,72.1 40.19,104.79 -2.97,32.63 -20.78,62.03 -53.49,88.14 -33.58,26.78 -67.96,37.63 -102.96,32.49 -35.06,-5.06 -69.12,-28.4 -102.2,-69.86l-44.93 -56.32 -123 98.14 -82.21 -103.04 332.33 -265.15zm-59.81 216.36l20.17 25.3c15.93,19.95 30.57,31.18 43.88,33.72 13.31,2.56 25.33,-0.45 36.08,-9.03 10.45,-8.33 16.49,-18.84 18.15,-31.7 1.71,-12.76 -5.14,-28.81 -20.58,-48.15l-23.45 -29.39 -74.25 59.25zm301.13 88.71l244.47 252.59 -65.28 63.18 -152.8 -157.86 -48.63 47.08 141.64 146.34 -62.29 60.29 -141.64 -146.34 -60.16 58.22 157.33 162.56 -69.12 66.9 -249.02 -257.28 305.5 -295.68zm274.01 275.03l99.82 85.18 -208.13 243.92 156.29 133.35 -67.84 79.5 -256.11 -218.54 275.97 -323.41zm287.29 657.64l-125.86 -79.46 -55.48 47.82 -113.38 -71.6 362.31 -274.03 121.58 76.79 -92.28 444.54 -116.31 -73.45 19.42 -70.61zm25.63 -92.66l42.34 -153.98 -121 104.31 78.66 49.67zm110.46 255.58l191.49 -379.57 195.45 98.59c36.22,18.27 62.41,35.37 78.33,51.26 16.04,15.87 25.67,35.23 28.96,57.97 3.24,22.79 -1.32,46.31 -13.53,70.53 -10.61,21.03 -24.3,36.96 -41.03,47.69 -16.68,10.87 -35.29,17.01 -55.92,18.56 -13.01,0.98 -29.34,-0.93 -48.75,-5.75 11.6,11.74 19.44,21.46 23.44,29.35 2.68,5.23 5.56,15.11 8.66,29.41 3.01,14.27 4.51,24.89 4.45,31.84l1.66 138.4 -132.53 -66.86 -4.25 -147.35c-0.38,-19.03 -2.55,-32.32 -6.45,-39.93 -5.54,-10.12 -13.71,-17.9 -24.39,-23.29l-10.35 -5.22 -77.56 153.75 -117.68 -59.38zm231.35 -165.94l49.57 25.01c5.3,2.67 16.62,6.16 33.74,10.48 8.53,2.42 16.89,1.65 25.01,-2.35 8.2,-3.94 14.37,-10.04 18.56,-18.35 6.19,-12.27 7.08,-23.69 2.6,-34.15 -4.43,-10.54 -17.36,-21.18 -38.83,-32.01l-51.6 -26.03 -39.05 77.4zm344.55 -34.7l122.89 47.73 -153.93 396.3 -122.88 -47.72 153.92 -396.31zm328.2 478.91l-143.34 -40.09 -39.46 61.72 -129.14 -36.13 268.62 -366.33 138.48 38.74 38.94 452.35 -132.48 -37.05 -1.62 -73.21zm-1.99 -96.12l-3.55 -159.66 -86.03 134.6 89.58 25.06zm723.43 64.59l90.25 27.41c-6.12,16.71 -11.77,29.98 -16.88,39.91 -5.2,9.83 -12.43,21.5 -21.46,34.82l41.83 33.69c5.17,3.86 11.77,8.54 19.9,14.01l-68.7 67.88c-11.1,-6.97 -22.6,-14.98 -34.33,-24.01 -11.83,-9.01 -22.46,-16.75 -31.81,-23.2 -21.44,11.87 -42.59,20.13 -63.48,24.8 -28.86,6.28 -61.34,8.11 -97.36,5.42 -56.45,-4.23 -97.51,-19.1 -123.29,-44.75 -25.77,-25.55 -37.46,-55.11 -34.94,-88.67 1.81,-24.17 11.61,-46.37 29.41,-66.67 17.78,-20.2 45.59,-36.48 83.52,-48.52 -13.99,-19.91 -23.35,-36.88 -28.03,-51.12 -4.79,-14.16 -6.59,-28.49 -5.53,-42.7 2.25,-30.1 15.55,-54.01 39.9,-71.74 24.45,-17.72 59.92,-24.88 106.61,-21.39 47.56,3.57 81.8,15.45 102.71,35.58 21.02,20.24 30.52,43.17 28.59,69.03 -1.09,14.51 -5.59,28.07 -13.39,40.88 -7.9,12.8 -16.9,22.94 -27.2,30.51 -10.29,7.56 -28.48,18.61 -54.67,33.12 19.07,22.27 39.14,43.12 60.22,62.56 6.82,-11.59 12.89,-23.84 18.13,-36.85zm-129.62 -84.53c15.82,-7.24 28.14,-15.35 37.16,-24.52 9.02,-9.14 13.86,-18.01 14.51,-26.69 0.68,-9.07 -2.21,-17.04 -8.64,-23.86 -6.45,-6.75 -15.78,-10.62 -27.92,-11.52 -11.94,-0.9 -21.87,1.84 -29.88,8.28 -8.02,6.34 -12.4,14.25 -13.1,23.73 -0.91,12.04 8.36,30.19 27.87,54.58zm-49.56 100c-17.15,10.13 -28.63,19.09 -34.48,26.79 -5.93,7.79 -9.24,16.18 -9.92,25.26 -1.06,14.12 4.02,27.09 15.33,39.06 11.32,11.85 26.71,18.57 46.15,20.03 21.02,1.57 45.22,-4.86 72.6,-19.38 -23.52,-21.11 -53.49,-51.75 -89.68,-91.76zm527.71 -234.52l131.46 -9.84 31.75 423.96 -131.46 9.84 -31.75 -423.96zm182.78 -7.32l170.66 -30.03 109.83 243.35 20.37 -266.26 169.89 -29.88 73.67 418.7 -105.84 18.63 -56.17 -319.2 -25.52 333.57 -95.91 16.88 -137.64 -304.88 56.17 319.21 -105.85 18.63 -73.66 -418.72zm490.57 -90.07l207.3 -69.11c45.15,-15.05 82.53,-15.61 112.23,-1.62 29.6,14.02 51.07,40.87 64.3,80.58 13.59,40.75 11.93,76.77 -4.94,107.85 -16.83,31.17 -50.48,55.11 -100.8,71.87l-68.35 22.79 49.76 149.28 -125.06 41.69 -134.44 -403.33zm182.52 130.68l30.69 -10.23c24.23,-8.07 39.82,-17.96 46.8,-29.58 6.97,-11.61 8.28,-23.92 3.93,-36.98 -4.23,-12.68 -12.01,-21.96 -23.5,-27.95 -11.39,-6.01 -28.83,-5.1 -52.3,2.72l-35.67 11.89 30.05 90.13zm360.05 133.31l-172.95 -388.38 199.98 -89.05c37.07,-16.5 66.87,-25.98 89.25,-28.25 22.43,-2.41 43.52,2.38 63.21,14.21 19.7,11.91 35.05,30.32 46.08,55.09 9.59,21.51 13.27,42.2 11.01,61.94 -2.13,19.8 -9.15,38.09 -20.99,55.06 -7.47,10.7 -19.28,22.12 -35.28,34.13 16.42,-1.57 28.92,-1.51 37.55,0.4 5.75,1.23 15.23,5.24 28.26,11.89 12.96,6.7 22.14,12.24 27.48,16.68l108.27 86.24 -135.61 60.38 -116.83 -89.89c-14.99,-11.75 -26.65,-18.47 -35.02,-20.26 -11.34,-2.1 -22.53,-0.69 -33.46,4.18l-10.58 4.7 70.04 157.31 -120.41 53.62zm17.76 -284.16l50.72 -22.58c5.42,-2.41 15.28,-8.97 29.45,-19.51 7.27,-5.08 11.96,-12.03 14,-20.86 2.12,-8.85 1.31,-17.47 -2.47,-25.98 -5.6,-12.56 -13.89,-20.46 -24.82,-23.61 -10.97,-3.23 -27.38,0.05 -49.35,9.84l-52.8 23.51 35.27 79.19zm173.29 -268.41l297.22 -187.68 48.5 76.81 -185.76 117.3 36.15 57.24 172.21 -108.75 46.28 73.29 -172.2 108.75 44.7 70.79 191.28 -120.78 51.37 81.32 -302.74 191.18 -227.01 -359.47zm484.36 30.93l93.82 -82.52c14.46,14.33 28.3,23.15 41.29,26.35 21.21,5.24 41.73,0.24 61.61,-15.15 14.78,-11.44 23.55,-23.73 26.15,-36.88 2.66,-13.2 0.41,-24.35 -6.67,-33.5 -6.74,-8.69 -16.54,-13.61 -29.47,-14.62 -12.92,-1.02 -35.57,6.26 -68.15,21.58 -53.41,25.09 -96.35,36.56 -128.91,34.59 -32.65,-1.76 -59.14,-15.78 -79.5,-42.08 -13.32,-17.22 -20.91,-37.37 -22.77,-60.46 -1.92,-23.16 3.78,-46.85 17.1,-71.18 13.33,-24.33 37.49,-50.04 72.46,-77.11 42.97,-33.27 81.86,-50.61 116.82,-52.01 34.88,-1.48 67.95,13.59 99.27,45.17l-93.17 81.38c-14.39,-13.26 -28.48,-20.13 -42.1,-20.6 -13.77,-0.47 -27.93,4.99 -42.58,16.32 -12.04,9.32 -19.19,18.99 -21.36,28.81 -2.18,9.81 -0.37,18.43 5.32,25.79 4.13,5.32 10.32,8.15 18.58,8.64 8.23,0.76 22.95,-4.13 44.24,-14.48 52.95,-25.35 93.13,-40.55 120.45,-45.68 27.39,-5.19 51.29,-3.9 71.71,4.05 20.37,7.89 37.68,21.02 51.92,39.42 16.66,21.51 26.1,46 28.32,73.45 2.08,27.41 -3.79,54.11 -17.96,80.09 -14.1,25.94 -37.39,51.47 -69.94,76.66 -57.13,44.23 -105.27,63.86 -144.28,58.88 -39.01,-4.96 -73.07,-23.27 -102.2,-54.91zm325.63 -248.59l81.1 -95.04c16.37,12.12 31.32,18.88 44.64,20.2 21.73,2.16 41.34,-5.7 58.82,-23.78 13.01,-13.43 19.93,-26.84 20.62,-40.22 0.75,-13.45 -3.06,-24.17 -11.38,-32.22 -7.9,-7.64 -18.3,-11.11 -31.24,-10.26 -12.93,0.83 -34.31,11.26 -64.37,31.06 -49.3,32.44 -90.17,49.92 -122.68,52.61 -32.57,2.91 -60.78,-7.21 -84.67,-30.33 -15.65,-15.15 -26.04,-34.01 -31.16,-56.59 -5.2,-22.66 -2.95,-46.91 6.79,-72.91 9.72,-25.97 29.97,-54.86 60.73,-86.65 37.79,-39.04 73.8,-61.74 108.2,-68.1 34.33,-6.44 69.21,3.76 104.72,30.55l-80.64 93.83c-16.13,-11.07 -31.05,-15.86 -44.6,-14.39 -13.7,1.5 -26.94,8.91 -39.82,22.21 -10.59,10.95 -16.3,21.54 -17.05,31.57 -0.75,10.01 2.26,18.29 8.95,24.75 4.84,4.69 11.37,6.62 19.62,5.92 8.25,-0.42 22.12,-7.36 41.72,-20.63 48.81,-32.64 86.4,-53.4 112.71,-62.38 26.37,-9.03 50.22,-11.17 71.57,-6.2 21.28,4.91 40.29,15.43 56.99,31.61 19.56,18.92 32.4,41.81 38.51,68.66 5.96,26.85 3.95,54.1 -6.37,81.84 -10.26,27.68 -29.67,56.28 -58.3,85.85 -50.25,51.91 -95.1,78.2 -134.42,78.83 -39.32,0.65 -75.65,-12.62 -108.99,-39.79zm238.77 -346.09c-54.22,-43.27 -84.43,-92.05 -90.47,-146.38 -6.11,-54.37 12.38,-108.5 55.46,-162.49 44.13,-55.31 93,-86.09 146.51,-92.38 53.59,-6.25 107.13,12.05 160.58,54.68 38.83,30.98 65.44,62.85 79.84,95.74 14.4,32.88 18.62,67.26 12.78,102.99 -5.91,35.8 -23.58,72.08 -53.03,108.99 -29.86,37.44 -60.57,63.7 -92.11,78.8 -31.56,14.96 -66.35,19.85 -104.34,14.47 -37.94,-5.3 -76.38,-23.44 -115.22,-54.42zm82.08 -102.4c33.49,26.73 62.63,39.72 87.2,38.92 24.61,-0.86 45.54,-12.01 62.71,-33.53 17.58,-22.04 24.09,-44.95 19.39,-68.45 -4.69,-23.62 -25.56,-50.14 -62.78,-79.82 -31.24,-24.94 -59.12,-36.8 -83.57,-35.68 -24.58,1.15 -45.42,12.5 -62.71,34.16 -16.54,20.75 -22.52,43.32 -17.9,67.52 4.56,24.27 23.85,49.9 57.66,76.88zm-157.04 -314.44l28.52 -35.74c4.07,3 7.53,5.64 10.39,7.93 16.78,13.39 26.47,28.06 28.94,43.85 2.48,15.77 -1.59,30.38 -12.14,43.61 -7.71,9.66 -23.31,21.14 -46.89,34.5 -14.29,8.08 -23.23,14.37 -26.88,18.94 -3.45,4.32 -4.77,8.84 -3.98,13.4 0.79,4.57 4.53,9.7 11.38,15.41l-28.15 35.27c-3.76,-2.74 -7,-5.19 -9.78,-7.42 -16.24,-12.95 -25.59,-27.74 -28,-44.24 -2.5,-16.55 1.1,-30.9 10.86,-43.12 4.2,-5.26 8.83,-9.79 13.68,-13.51 5.01,-3.72 15.11,-9.73 30.43,-18.13 15.4,-8.36 25.37,-15.47 29.94,-21.19 3.21,-4.02 4.47,-8.47 3.67,-13.16 -0.82,-4.69 -4.82,-10.16 -11.99,-16.4zm186.69 -69.8l177.23 -303.58 78.46 45.81 -110.77 189.73 58.46 34.13 102.69 -175.88 74.86 43.69 -102.68 175.88 72.31 42.22 114.05 -195.37 83.08 48.49 -180.52 309.22 -367.17 -214.34zm442.78 -196.13l44.91 -116.59c19.46,6 35.81,7.4 48.8,4.22 21.22,-5.18 37.1,-19.13 47.59,-41.97 7.79,-16.99 9.86,-31.94 6.08,-44.8 -3.77,-12.93 -10.92,-21.77 -21.44,-26.6 -10,-4.58 -20.96,-4.4 -32.89,0.7 -11.92,5.08 -28.61,22.03 -50.39,50.7 -35.7,46.98 -68.44,77.03 -98.2,90.38 -29.75,13.57 -59.73,13.42 -89.96,-0.46 -19.78,-9.08 -35.85,-23.42 -48.19,-43.02 -12.43,-19.65 -18.37,-43.26 -17.83,-71.01 0.54,-27.73 10.04,-61.71 28.49,-101.91 22.66,-49.38 49.08,-82.77 79.41,-100.2 30.24,-17.48 66.53,-19.45 108.91,-5.99l-44.86 115.3c-18.9,-5.08 -34.56,-4.64 -46.85,1.25 -12.42,5.97 -22.45,17.36 -30.17,34.18 -6.35,13.85 -8.21,25.73 -5.58,35.44 2.62,9.7 8.2,16.51 16.66,20.38 6.11,2.81 12.93,2.45 20.47,-0.94 7.64,-3.13 18.42,-14.3 32.5,-33.33 35.18,-47.01 63.74,-79.08 85.57,-96.29 21.87,-17.29 43.64,-27.23 65.43,-29.64 21.7,-2.45 43.13,1.17 64.26,10.87 24.74,11.35 44.45,28.68 59.14,51.97 14.54,23.33 21.71,49.72 21.19,79.31 -0.48,29.52 -9.29,62.93 -26.45,100.33 -30.14,65.67 -63.7,105.36 -100.58,119.04 -36.88,13.67 -75.54,13.23 -116.02,-1.32z"/>
  </g>
 </g>
</svg>